<?xml version="1.0" encoding="iso-8859-1"?>
<!-- Generator: Adobe Illustrator 19.0.0, SVG Export Plug-In . SVG Version: 6.00 Build 0)  -->
<svg version="1.1" id="Layer_1" xmlns="http://www.w3.org/2000/svg" xmlns:xlink="http://www.w3.org/1999/xlink" x="0px" y="0px"
	 viewBox="0 0 511.998 511.998" style="enable-background:new 0 0 511.998 511.998;" xml:space="preserve">
<path d="M507.699,4.014c-3.716-3.712-9.224-4.977-14.184-3.256l-92.917,32.199c-6.794,2.353-10.614,9.553-8.755,16.5
	c1.86,6.947,8.77,11.284,15.828,9.918l31.276-5.999l-49.779,49.777c-7.622-5.282-15.766-9.389-24.103-12.057
	c-12.525-4-24.905-6.026-36.818-6.026c-27.795,0-53.03,11.017-72.428,31.325c-20.728-20.55-44.745-30.952-71.575-30.955
	c-11.18,0-22.799,1.901-34.53,5.647c-17.278,5.529-33.744,17.175-46.373,32.796c-13.502,16.7-22.243,37.247-25.275,59.418
	c-4.811,35.166,4.857,73.309,27.957,110.309c10.827,17.347,24.605,34.213,41.221,51.155l-22.953,22.637H68.84
	c-7.572,0-13.711,6.139-13.711,13.711s6.139,13.711,13.711,13.711h28.026L67.73,423.963H13.995c-7.572,0-13.711,6.139-13.711,13.711
	s6.139,13.711,13.711,13.711h46.046v46.901c0,7.572,6.139,13.711,13.711,13.711s13.711-6.139,13.711-13.711V443.41l29.137-29.137
	v29.167c0,7.572,6.139,13.711,13.711,13.711c7.572,0,13.711-6.139,13.711-13.711v-56.59l22.966-22.853
	c19.383,17.319,41.83,34.349,67.15,50.992c6.897,4.535,14.94,6.933,23.206,6.933c8.265,0,16.293-2.396,23.191-6.933
	c58.967-38.764,102.098-79.603,128.179-121.38c23.098-37,32.768-75.145,27.961-110.309c-3.03-22.168-11.766-42.714-25.265-59.415
	c-0.626-0.773-1.267-1.531-1.909-2.283l48.836-48.836l-6,31.276c-1.356,7.06,2.974,13.968,9.918,15.826
	c1.186,0.319,2.377,0.471,3.551,0.471c5.711,0,10.998-3.592,12.95-9.226l32.199-92.917C512.678,13.236,511.411,7.729,507.699,4.014z
	 M257.373,394.502c-2.828,0-5.656-0.811-8.112-2.423c-24.49-16.099-45.253-31.975-62.743-47.491l65.84-65.838
	c5.354-5.356,5.354-14.035,0-19.391c-5.356-5.353-14.037-5.353-19.393,0l-66.339,66.337
	c-104.957-107.175-55.855-193.355-8.568-208.483c9.368-2.993,18.077-4.348,26.182-4.348c25.925,0.003,45.645,13.862,60.695,32.326
	c2.893,3.548,7.034,5.289,11.183,5.289c4.521,0,9.051-2.065,11.989-6.096c13.974-19.179,34.285-31.893,60.138-31.893
	c8.846,0,18.346,1.489,28.458,4.72c56.715,18.154,116.082,138.592-91.218,274.866C263.029,393.691,260.201,394.502,257.373,394.502z
	"/>
<path style="fill:#D21E1E;" d="M356.703,117.213c-10.11-3.231-19.611-4.72-28.458-4.72c-25.853,0-46.163,12.714-60.138,31.893
	c-2.938,4.029-7.468,6.096-11.989,6.096c-4.149,0-8.29-1.741-11.183-5.289c-15.05-18.464-34.77-32.323-60.695-32.326
	c-8.105,0-16.815,1.356-26.182,4.348c-47.287,15.127-96.389,101.308,8.568,208.483l66.339-66.337c5.356-5.353,14.037-5.353,19.393,0
	c5.354,5.356,5.354,14.035,0,19.391l-65.84,65.838c17.491,15.516,38.253,31.392,62.743,47.491c2.458,1.613,5.286,2.423,8.112,2.423
	c2.828,0,5.656-0.811,8.112-2.423C472.785,255.805,413.418,135.367,356.703,117.213z"/>
<g>
</g>
<g>
</g>
<g>
</g>
<g>
</g>
<g>
</g>
<g>
</g>
<g>
</g>
<g>
</g>
<g>
</g>
<g>
</g>
<g>
</g>
<g>
</g>
<g>
</g>
<g>
</g>
<g>
</g>
</svg>
